<?xml version="1.0" encoding="UTF-8"?>
<svg width="70px" height="34px" viewBox="0 0 70 34" version="1.1" xmlns="http://www.w3.org/2000/svg" xmlns:xlink="http://www.w3.org/1999/xlink">
    <!-- Generator: Sketch 40.1 (33804) - http://www.bohemiancoding.com/sketch -->
    <title>Arrow Left</title>
    <desc>Created with Sketch.</desc>
    <defs></defs>
    <g id="Design" stroke="none" stroke-width="1" fill="none" fill-rule="evenodd">
        <g id="Slider---Mast-Head-1" transform="translate(-1225.000000, -615.000000)" fill="#AFB7BD">
            <g id="Arrows" transform="translate(1225.000000, 570.000000)">
                <path d="M16.5098682,78.2888246 C17.5087101,79.2370585 19.1279931,79.2370585 20.1251305,78.2888246 C21.1239724,77.3405908 21.1239724,75.8033516 20.1251305,74.8567359 L9.75319697,65.0103145 L67.1099041,65.0103145 C68.521237,65.0103145 69.6666667,63.9245382 69.6666667,62.5830947 C69.6666667,61.2416513 68.521237,60.155875 67.1099041,60.155875 L9.82478632,60.155875 L20.7643211,49.7706107 C21.763163,48.823995 21.763163,47.2851377 20.7643211,46.338522 C20.2649002,45.8644051 19.610369,45.6265376 18.9575422,45.6265376 C18.303011,45.6265376 17.6484798,45.8644051 17.1490589,46.338522 L0,62.6170758 L16.5098682,78.2888246" id="Arrow-Left"></path>
            </g>
        </g>
    </g>
</svg>