<svg id="Layer_1" data-name="Layer 1" xmlns="http://www.w3.org/2000/svg" viewBox="0 0 419.5 200.4"><defs><style>.cls-1{fill:#231f20;}</style></defs><title>simulauc-negro</title><path class="cls-1" d="M5.38,65.34a30.43,30.43,0,0,0,15.5,4.3c8.9,0,14.1-4.6,14.1-11.4,0-6.3-3.6-10-12.7-13.4-11-3.8-17.8-9.6-17.8-19,0-10.5,8.7-18.3,21.8-18.3,6.8,0,11.9,1.6,14.8,3.2l-2.4,7.2A24.94,24.94,0,0,0,26,14.74c-9.2,0-12.7,5.5-12.7,10.1,0,6.2,4.1,9.3,13.4,12.9,11.4,4.5,17.1,9.9,17.1,19.8,0,10.3-7.6,19.4-23.5,19.4-6.5,0-13.6-2-17.2-4.4Z" transform="translate(-3.08 -4.93)"/><path class="cls-1" d="M59.68,19.34a5.23,5.23,0,0,1-5.3-5.4,5.45,5.45,0,1,1,10.9,0,5.28,5.28,0,0,1-5.5,5.4Zm-4.2,56.6V27.54h8.8v48.4Z" transform="translate(-3.08 -4.93)"/><path class="cls-1" d="M78.88,40.64c0-5.1-.2-9.1-.4-13.1h7.7l.4,7.8h.3c2.7-4.6,7.2-8.9,15.3-8.9a14.28,14.28,0,0,1,13.6,9.7h.2a19.1,19.1,0,0,1,5.5-6.3,16.24,16.24,0,0,1,10.6-3.4c6.5,0,16,4.2,16,21v28.5h-8.6V48.54c0-9.4-3.5-14.9-10.5-14.9-5.1,0-8.9,3.7-10.5,7.9a15.6,15.6,0,0,0-.7,4.4v30h-8.6V46.84c0-7.7-3.4-13.2-10.1-13.2-5.4,0-9.5,4.4-10.9,8.8a12.13,12.13,0,0,0-.7,4.3v29.2h-8.6Z" transform="translate(-3.08 -4.93)"/><path class="cls-1" d="M202.78,62.64c0,5.1.1,9.5.4,13.3h-7.8l-.5-7.9h-.2a18.08,18.08,0,0,1-16,9c-7.6,0-16.7-4.3-16.7-21.2V27.54h8.8v26.7c0,9.2,2.9,15.5,10.8,15.5a12.66,12.66,0,0,0,11.6-8.1,12.07,12.07,0,0,0,.8-4.5V27.54h8.8Z" transform="translate(-3.08 -4.93)"/><path class="cls-1" d="M217.38,4.93h8.8v71h-8.8Z" transform="translate(-3.08 -4.93)"/><path class="cls-1" d="M275.08,64.34a81.22,81.22,0,0,0,.7,11.6h-7.9l-.8-6.1h-.3A17.88,17.88,0,0,1,252,77c-9.8,0-14.8-6.9-14.8-13.9,0-11.7,10.4-18.1,29.1-18v-1c0-4-1.1-11.3-11-11.2a23.32,23.32,0,0,0-12.7,3.6l-2-5.9a31.35,31.35,0,0,1,16-4.2c14.9,0,18.5,10.1,18.5,19.8Zm-8.6-13.1c-9.6-.2-20.5,1.5-20.5,10.9,0,5.8,3.8,8.4,8.2,8.4a12.22,12.22,0,0,0,11.9-8.1,9,9,0,0,0,.4-2.8Z" transform="translate(-3.08 -4.93)"/><path class="cls-1" d="M319.38,8.53v40c0,15,6.7,21.4,15.7,21.4,9.9,0,16.4-6.6,16.4-21.4v-40h8.8v39.4c0,20.7-10.9,29.1-25.5,29.1-13.8,0-24.2-7.8-24.2-28.8V8.53Z" transform="translate(-3.08 -4.93)"/><path class="cls-1" d="M422.38,73.74c-3.1,1.6-9.6,3.2-17.8,3.2-19,0-33.2-12-33.2-34.1,0-21.1,14.3-35.3,35.2-35.3,8.3,0,13.7,1.8,16,2.9l-2.2,7.2a30.87,30.87,0,0,0-13.5-2.8c-15.8,0-26.3,10.1-26.3,27.7,0,16.5,9.5,27,25.8,27,5.4,0,10.8-1.1,14.3-2.8Z" transform="translate(-3.08 -4.93)"/><text x="-3.08" y="-4.93"></text></svg>