<?xml version="1.0" encoding="UTF-8"?>
<svg width="178px" height="54px" viewBox="0 0 178 54" version="1.1" xmlns="http://www.w3.org/2000/svg" xmlns:xlink="http://www.w3.org/1999/xlink">
    <!-- Generator: Sketch 40.1 (33804) - http://www.bohemiancoding.com/sketch -->
    <title>Logo Combo 3 Copy</title>
    <desc>Created with Sketch.</desc>
    <defs></defs>
    <g id="Styleguide" stroke="none" stroke-width="1" fill="none" fill-rule="evenodd">
        <g id="Brand" transform="translate(-871.000000, -530.000000)">
            <g id="White-BG" transform="translate(89.000000, 80.000000)">
                <g id="Combos" transform="translate(20.000000, 449.000000)">
                    <g id="Logo-Combo-3-Copy" transform="translate(762.000000, 1.000000)">
                        <g id="Logo-Blue" transform="translate(70.600000, 8.529412)">
                            <path d="M19.5579378,30.1764706 L17.8395378,25.1830588 L7.45276444,25.1830588 L5.73436444,30.1764706 L0.0445511111,30.1764706 L9.47665778,3.49411765 L15.8538311,3.49411765 L25.2477511,30.1764706 L19.5579378,30.1764706 Z M8.86567111,21.0663529 L16.4648178,21.0663529 L12.6461511,9.97411765 L8.86567111,21.0663529 Z M34.3743644,9.05929412 L34.3743644,12.7948235 C35.8000071,10.101163 37.8620665,8.75435294 40.5606044,8.75435294 L40.5606044,14.2432941 L39.2240711,14.2432941 C37.6202231,14.2432941 36.4109907,14.6435254 35.5963378,15.444 C34.7816848,16.2444746 34.3743644,17.623049 34.3743644,19.5797647 L34.3743644,30.1764706 L28.9900444,30.1764706 L28.9900444,9.05929412 L34.3743644,9.05929412 Z M49.3817244,6.00988235 C48.7452768,6.64517965 47.9751867,6.96282353 47.0714311,6.96282353 C46.1676755,6.96282353 45.3975854,6.64517965 44.7611378,6.00988235 C44.1246902,5.37458506 43.8064711,4.59953399 43.8064711,3.68470588 C43.8064711,2.76987778 44.1246902,1.99482671 44.7611378,1.35952941 C45.3975854,0.724232118 46.1676755,0.406588235 47.0714311,0.406588235 C47.9751867,0.406588235 48.7452768,0.724232118 49.3817244,1.35952941 C50.0181721,1.99482671 50.3363911,2.76987778 50.3363911,3.68470588 C50.3363911,4.59953399 50.0181721,5.37458506 49.3817244,6.00988235 L49.3817244,6.00988235 Z M44.3792711,30.1764706 L44.3792711,9.05929412 L49.7635911,9.05929412 L49.7635911,30.1764706 L44.3792711,30.1764706 Z M54.3078044,15.2343529 C54.3078044,13.4046967 55.0842589,11.8673003 56.6371911,10.6221176 C58.1901233,9.37693495 60.2521827,8.75435294 62.8234311,8.75435294 C65.3946795,8.75435294 67.4567389,9.37058207 69.0096711,10.6030588 C70.5626033,11.8355356 71.3899728,13.5063424 71.4918044,15.6155294 L65.9929244,15.6155294 C65.840177,13.836697 64.7455035,12.9472941 62.7088711,12.9472941 C61.6905549,12.9472941 60.9013717,13.1505862 60.3412978,13.5571765 C59.7812239,13.9637667 59.5011911,14.52282 59.5011911,15.2343529 C59.5011911,15.9458859 59.9212402,16.5049391 60.7613511,16.9115294 C61.601462,17.3181197 62.6197629,17.6357636 63.8162844,17.8644706 C65.012806,18.0931776 66.2029452,18.3790571 67.3867378,18.7221176 C68.5705304,19.0651782 69.5824669,19.6750544 70.4225778,20.5517647 C71.2626886,21.428475 71.6827378,22.5910516 71.6827378,24.0395294 C71.6827378,25.9454213 70.8744614,27.4955234 69.2578844,28.6898824 C67.6413075,29.8842413 65.5792481,30.4814118 63.0716444,30.4814118 C60.5640408,30.4814118 58.5083458,29.8905941 56.9044978,28.7089412 C55.3006498,27.5272882 54.4223652,25.8310699 54.2696178,23.6202353 L59.7684978,23.6202353 C59.972161,25.3990677 61.1050208,26.2884706 63.1671111,26.2884706 C64.1599694,26.2884706 64.9618814,26.0661199 65.5728711,25.6214118 C66.1838608,25.1767037 66.4893511,24.5922389 66.4893511,23.868 C66.4893511,23.1437611 66.069302,22.5720021 65.2291911,22.1527059 C64.3890802,21.7334097 63.3707793,21.4094129 62.1742578,21.1807059 C60.9777362,20.9519989 59.787597,20.6724722 58.6038044,20.3421176 C57.4200119,20.0117631 56.4080753,19.4209454 55.5679644,18.5696471 C54.7278536,17.7183487 54.3078044,16.6065951 54.3078044,15.2343529 L54.3078044,15.2343529 Z M81.6494578,9.05929412 L81.6494578,12.2230588 C82.9987267,9.91057667 85.1880737,8.75435294 88.2175644,8.75435294 C90.6360654,8.75435294 92.6090235,9.54846265 94.1364978,11.1367059 C95.6639721,12.7249491 96.4276978,14.9293977 96.4276978,17.7501176 L96.4276978,30.1764706 L91.0815644,30.1764706 L91.0815644,18.5124706 C91.0815644,16.8606976 90.6615153,15.596475 89.8214044,14.7197647 C88.9812936,13.8430544 87.835705,13.4047059 86.3846044,13.4047059 C84.9335039,13.4047059 83.7815509,13.8430544 82.9287111,14.7197647 C82.0758713,15.596475 81.6494578,16.8606976 81.6494578,18.5124706 L81.6494578,30.1764706 L76.2651378,30.1764706 L76.2651378,9.05929412 L81.6494578,9.05929412 Z" id="Arisn." fill="#E8ECF0"></path>
                            <path d="M103.778631,30.1764706 C102.925791,30.1764706 102.206616,29.8842382 101.621084,29.2997647 C101.035553,28.7152912 100.742791,27.9910631 100.742791,27.1270588 C100.742791,26.2630545 101.035553,25.5388265 101.621084,24.9543529 C102.206616,24.3698794 102.925791,24.0776471 103.778631,24.0776471 C104.631471,24.0776471 105.35701,24.3698794 105.955271,24.9543529 C106.553532,25.5388265 106.852658,26.2630545 106.852658,27.1270588 C106.852658,27.9910631 106.553532,28.7152912 105.955271,29.2997647 C105.35701,29.8842382 104.631471,30.1764706 103.778631,30.1764706 Z" id="Path" fill="#FFFFFF"></path>
                        </g>
                        <path d="M24.3410653,18.1186569 L16.4401816,24.8312257 L8.60513864,4.74974612 L24.3410653,18.1186569 Z M43.4681752,4.74974612 L35.6331322,24.8312257 L27.7322485,18.1186569 L43.4681752,4.74974612 Z M37.4077327,26.3385691 L45.5347985,5.51689684 L49.5200972,36.6288639 L37.4077327,26.3385691 Z M28.1373625,50.0979048 L36.5634226,28.5021498 L49.0266793,39.089754 L28.1373625,50.0979048 Z M15.5098913,28.5021498 L23.9359514,50.0979048 L3.04663459,39.089754 L15.5098913,28.5021498 Z M6.53851534,5.51689684 L14.6655812,26.3385691 L2.55244206,36.6288639 L6.53851534,5.51689684 Z M26.0366569,49.4177903 L17.2844918,26.9940362 L26.0366569,19.5589901 L34.7888221,26.9940362 L26.0366569,49.4177903 Z M52.0731671,39.3138915 C52.0739417,39.2715287 52.0716179,39.229166 52.0669703,39.1868032 C52.0661957,39.1798711 52.0669703,39.1721688 52.0654211,39.1652367 L47.1707462,0.95866593 C47.1312418,0.646722112 46.9608306,0.377141034 46.7160581,0.203838912 C46.7145089,0.203068681 46.7137343,0.202298449 46.7129597,0.201528217 C46.6842997,0.180731963 46.6533158,0.166097561 46.6231065,0.149152465 C46.6021924,0.136828759 46.5828275,0.122964589 46.5619134,0.112951578 C46.1722914,-0.0780658719 45.699013,-0.0256901196 45.3605143,0.261606286 L26.0366569,16.6783237 L6.71279954,0.261606286 C6.37430089,-0.0256901196 5.90102247,-0.0780658719 5.51140046,0.112951578 C5.49048636,0.122964589 5.47189604,0.136058527 5.45175653,0.147612002 C5.42077268,0.16532733 5.38978882,0.180731963 5.36035415,0.201528217 C5.35880496,0.202298449 5.35803036,0.203068681 5.35725577,0.203838912 C5.11248329,0.377141034 4.94207208,0.646722112 4.90179306,0.95866593 L0.00711815429,39.1652367 C0.00634355785,39.1721688 0.00711815429,39.1798711 0.00634355785,39.1868032 C0.00169597921,39.229166 -0.000627810116,39.2715287 0.000146786325,39.3138915 C0.000146786325,39.332377 0.00169597921,39.3500923 0.00247057565,39.3685779 C0.00324517209,39.3870635 0.00324517209,39.4047788 0.00479436497,39.4232643 C0.00711815429,39.438669 0.0102165401,39.4525332 0.0125403294,39.4671676 C0.0156387151,39.4864233 0.0187371009,39.5049089 0.0226100831,39.5233945 C0.0295814511,39.5572847 0.0388766083,39.5904046 0.0489463621,39.6235246 C0.0535939407,39.6389292 0.0574669229,39.6543338 0.062889098,39.6689682 C0.0791556233,39.7159524 0.0985205343,39.7621663 0.121758427,39.8068397 C0.12330762,39.8099206 0.12563141,39.8122313 0.127180603,39.8153123 C0.148869303,39.8569048 0.173656389,39.8961866 0.200767264,39.9339279 C0.210062422,39.9470219 0.220132175,39.9593456 0.230201929,39.9724395 C0.251116033,39.9993976 0.27357933,40.0255855 0.297591819,40.0510031 C0.309985363,40.0640971 0.322378906,40.077191 0.335547045,40.0895147 C0.360334131,40.1141621 0.38667041,40.1364989 0.414555882,40.1580653 C0.427724021,40.1680784 0.439342968,40.1788616 0.453285704,40.1888746 C0.494339315,40.2189136 0.537716716,40.246642 0.584192502,40.2712894 L25.5238741,53.4145223 C25.5494358,53.4283865 25.5765467,53.4391697 25.6028829,53.4507232 C25.6191495,53.456885 25.6330922,53.466898 25.6493587,53.4730599 C25.6687236,53.4807622 25.6888631,53.4830729 25.7090026,53.4892348 C25.7407611,53.4992478 25.771745,53.5084906 25.804278,53.5154226 C25.8267413,53.520044 25.8492046,53.5246654 25.8724425,53.5277463 C25.9220167,53.5354487 25.9708162,53.54007 26.021165,53.5408403 C26.025038,53.5408403 26.0296856,53.5423807 26.0335586,53.5423807 C26.0343331,53.5423807 26.0358823,53.5416105 26.0366569,53.5416105 C26.0374315,53.5416105 26.0382061,53.5423807 26.0397553,53.5423807 C26.0436283,53.5423807 26.0475013,53.5408403 26.0521489,53.5408403 C26.101723,53.54007 26.1512972,53.5354487 26.2008714,53.5277463 C26.2233347,53.5246654 26.245798,53.520044 26.2690359,53.5154226 C26.3007943,53.5084906 26.3325528,53.4992478 26.3643112,53.4892348 C26.3836761,53.4830729 26.4045902,53.479992 26.4239552,53.4730599 C26.4402217,53.466898 26.4541644,53.456885 26.4696563,53.4507232 C26.4959926,53.4391697 26.5231035,53.4283865 26.5494398,53.4145223 L51.4891214,40.2712894 C51.5348226,40.246642 51.5782,40.2189136 51.6200282,40.1888746 C51.6331963,40.1788616 51.6455899,40.1680784 51.658758,40.1580653 C51.6858689,40.1364989 51.7122052,40.1141621 51.7377668,40.0895147 C51.750935,40.077191 51.7633285,40.0640971 51.7757221,40.0510031 C51.7997345,40.0255855 51.8214232,39.9993976 51.8423374,39.9724395 C51.8524071,39.9593456 51.8632515,39.9470219 51.8725466,39.9339279 C51.8996575,39.8961866 51.9244446,39.8569048 51.9461333,39.8153123 C51.9476825,39.8122313 51.9500063,39.8099206 51.9515555,39.8068397 C51.9740187,39.7621663 51.9933837,39.7159524 52.0104248,39.6689682 C52.015847,39.6543338 52.0197199,39.6389292 52.0243675,39.6235246 C52.0344373,39.5904046 52.0437324,39.5572847 52.0507038,39.5233945 C52.0545768,39.5049089 52.0576752,39.4864233 52.059999,39.4671676 C52.0623227,39.4525332 52.0661957,39.438669 52.0677449,39.4232643 C52.0700687,39.4047788 52.0692941,39.3870635 52.0708433,39.3685779 C52.0716179,39.3500923 52.0731671,39.332377 52.0731671,39.3138915 L52.0731671,39.3138915 Z" id="Logo-Medium" fill="#FFFFFF"></path>
                    </g>
                </g>
            </g>
        </g>
    </g>
</svg>