<?xml version="1.0" encoding="UTF-8"?>
<svg width="53px" height="54px" viewBox="0 0 53 54" version="1.1" xmlns="http://www.w3.org/2000/svg" xmlns:xlink="http://www.w3.org/1999/xlink">
    <!-- Generator: Sketch 40.1 (33804) - http://www.bohemiancoding.com/sketch -->
    <title>Logo Medium</title>
    <desc>Created with Sketch.</desc>
    <defs>
        <linearGradient x1="0%" y1="-13.570657%" x2="80.6407153%" y2="94.4018401%" id="linearGradient-1">
            <stop stop-color="#FFFFFF" offset="0%"></stop>
            <stop stop-color="#C9CED4" offset="100%"></stop>
        </linearGradient>
    </defs>
    <g id="Styleguide" stroke="none" stroke-width="1" fill="none" fill-rule="evenodd">
        <g id="Brand" transform="translate(-871.000000, -530.000000)" fill="url(#linearGradient-1)">
            <g id="White-BG" transform="translate(89.000000, 80.000000)">
                <g id="Combos" transform="translate(20.000000, 449.000000)">
                    <g id="Logo-Combo-3-Copy" transform="translate(762.000000, 1.000000)">
                        <path d="M24.3410653,18.1186569 L16.4401816,24.8312257 L8.60513864,4.74974612 L24.3410653,18.1186569 Z M43.4681752,4.74974612 L35.6331322,24.8312257 L27.7322485,18.1186569 L43.4681752,4.74974612 Z M37.4077327,26.3385691 L45.5347985,5.51689684 L49.5200972,36.6288639 L37.4077327,26.3385691 Z M28.1373625,50.0979048 L36.5634226,28.5021498 L49.0266793,39.089754 L28.1373625,50.0979048 Z M15.5098913,28.5021498 L23.9359514,50.0979048 L3.04663459,39.089754 L15.5098913,28.5021498 Z M6.53851534,5.51689684 L14.6655812,26.3385691 L2.55244206,36.6288639 L6.53851534,5.51689684 Z M26.0366569,49.4177903 L17.2844918,26.9940362 L26.0366569,19.5589901 L34.7888221,26.9940362 L26.0366569,49.4177903 Z M52.0731671,39.3138915 C52.0739417,39.2715287 52.0716179,39.229166 52.0669703,39.1868032 C52.0661957,39.1798711 52.0669703,39.1721688 52.0654211,39.1652367 L47.1707462,0.95866593 C47.1312418,0.646722112 46.9608306,0.377141034 46.7160581,0.203838912 C46.7145089,0.203068681 46.7137343,0.202298449 46.7129597,0.201528217 C46.6842997,0.180731963 46.6533158,0.166097561 46.6231065,0.149152465 C46.6021924,0.136828759 46.5828275,0.122964589 46.5619134,0.112951578 C46.1722914,-0.0780658719 45.699013,-0.0256901196 45.3605143,0.261606286 L26.0366569,16.6783237 L6.71279954,0.261606286 C6.37430089,-0.0256901196 5.90102247,-0.0780658719 5.51140046,0.112951578 C5.49048636,0.122964589 5.47189604,0.136058527 5.45175653,0.147612002 C5.42077268,0.16532733 5.38978882,0.180731963 5.36035415,0.201528217 C5.35880496,0.202298449 5.35803036,0.203068681 5.35725577,0.203838912 C5.11248329,0.377141034 4.94207208,0.646722112 4.90179306,0.95866593 L0.00711815429,39.1652367 C0.00634355785,39.1721688 0.00711815429,39.1798711 0.00634355785,39.1868032 C0.00169597921,39.229166 -0.000627810116,39.2715287 0.000146786325,39.3138915 C0.000146786325,39.332377 0.00169597921,39.3500923 0.00247057565,39.3685779 C0.00324517209,39.3870635 0.00324517209,39.4047788 0.00479436497,39.4232643 C0.00711815429,39.438669 0.0102165401,39.4525332 0.0125403294,39.4671676 C0.0156387151,39.4864233 0.0187371009,39.5049089 0.0226100831,39.5233945 C0.0295814511,39.5572847 0.0388766083,39.5904046 0.0489463621,39.6235246 C0.0535939407,39.6389292 0.0574669229,39.6543338 0.062889098,39.6689682 C0.0791556233,39.7159524 0.0985205343,39.7621663 0.121758427,39.8068397 C0.12330762,39.8099206 0.12563141,39.8122313 0.127180603,39.8153123 C0.148869303,39.8569048 0.173656389,39.8961866 0.200767264,39.9339279 C0.210062422,39.9470219 0.220132175,39.9593456 0.230201929,39.9724395 C0.251116033,39.9993976 0.27357933,40.0255855 0.297591819,40.0510031 C0.309985363,40.0640971 0.322378906,40.077191 0.335547045,40.0895147 C0.360334131,40.1141621 0.38667041,40.1364989 0.414555882,40.1580653 C0.427724021,40.1680784 0.439342968,40.1788616 0.453285704,40.1888746 C0.494339315,40.2189136 0.537716716,40.246642 0.584192502,40.2712894 L25.5238741,53.4145223 C25.5494358,53.4283865 25.5765467,53.4391697 25.6028829,53.4507232 C25.6191495,53.456885 25.6330922,53.466898 25.6493587,53.4730599 C25.6687236,53.4807622 25.6888631,53.4830729 25.7090026,53.4892348 C25.7407611,53.4992478 25.771745,53.5084906 25.804278,53.5154226 C25.8267413,53.520044 25.8492046,53.5246654 25.8724425,53.5277463 C25.9220167,53.5354487 25.9708162,53.54007 26.021165,53.5408403 C26.025038,53.5408403 26.0296856,53.5423807 26.0335586,53.5423807 C26.0343331,53.5423807 26.0358823,53.5416105 26.0366569,53.5416105 C26.0374315,53.5416105 26.0382061,53.5423807 26.0397553,53.5423807 C26.0436283,53.5423807 26.0475013,53.5408403 26.0521489,53.5408403 C26.101723,53.54007 26.1512972,53.5354487 26.2008714,53.5277463 C26.2233347,53.5246654 26.245798,53.520044 26.2690359,53.5154226 C26.3007943,53.5084906 26.3325528,53.4992478 26.3643112,53.4892348 C26.3836761,53.4830729 26.4045902,53.479992 26.4239552,53.4730599 C26.4402217,53.466898 26.4541644,53.456885 26.4696563,53.4507232 C26.4959926,53.4391697 26.5231035,53.4283865 26.5494398,53.4145223 L51.4891214,40.2712894 C51.5348226,40.246642 51.5782,40.2189136 51.6200282,40.1888746 C51.6331963,40.1788616 51.6455899,40.1680784 51.658758,40.1580653 C51.6858689,40.1364989 51.7122052,40.1141621 51.7377668,40.0895147 C51.750935,40.077191 51.7633285,40.0640971 51.7757221,40.0510031 C51.7997345,40.0255855 51.8214232,39.9993976 51.8423374,39.9724395 C51.8524071,39.9593456 51.8632515,39.9470219 51.8725466,39.9339279 C51.8996575,39.8961866 51.9244446,39.8569048 51.9461333,39.8153123 C51.9476825,39.8122313 51.9500063,39.8099206 51.9515555,39.8068397 C51.9740187,39.7621663 51.9933837,39.7159524 52.0104248,39.6689682 C52.015847,39.6543338 52.0197199,39.6389292 52.0243675,39.6235246 C52.0344373,39.5904046 52.0437324,39.5572847 52.0507038,39.5233945 C52.0545768,39.5049089 52.0576752,39.4864233 52.059999,39.4671676 C52.0623227,39.4525332 52.0661957,39.438669 52.0677449,39.4232643 C52.0700687,39.4047788 52.0692941,39.3870635 52.0708433,39.3685779 C52.0716179,39.3500923 52.0731671,39.332377 52.0731671,39.3138915 L52.0731671,39.3138915 Z" id="Logo-Medium"></path>
                    </g>
                </g>
            </g>
        </g>
    </g>
</svg>