<?xml version="1.0" encoding="UTF-8"?>
<svg width="21px" height="21px" viewBox="0 0 21 21" version="1.1" xmlns="http://www.w3.org/2000/svg" xmlns:xlink="http://www.w3.org/1999/xlink">
    <!-- Generator: Sketch 40.1 (33804) - http://www.bohemiancoding.com/sketch -->
    <title>Page 1</title>
    <desc>Created with Sketch.</desc>
    <defs></defs>
    <g id="Symbols" stroke="none" stroke-width="1" fill="none" fill-rule="evenodd">
        <g id="White-Nav" transform="translate(-1340.000000, -12.000000)" fill="#7C7F82">
            <g id="_top">
                <g id="Navigation" transform="translate(206.000000, 0.000000)">
                    <path d="M1154.8931,31.407537 C1154.83815,31.1111627 1154.65167,30.8000212 1154.33504,30.4833849 L1149.43164,25.5799872 C1151.90154,22.2089441 1151.54472,17.470733 1148.57583,14.5018387 C1146.96208,12.8894663 1144.81843,12 1142.53639,12 C1140.25468,12 1138.11103,12.8880926 1136.49832,14.5018387 C1133.16746,17.8316709 1133.16746,23.2498601 1136.49694,26.5807226 C1138.10966,28.1948121 1140.25468,29.0829047 1142.53639,29.0829047 C1144.60757,29.0829047 1146.59462,28.338363 1148.14792,26.9804673 L1152.99225,31.8247963 C1153.36761,32.2005013 1153.74744,32.399 1154.08812,32.399 C1154.30928,32.399 1154.51053,32.3158916 1154.66747,32.1589471 C1154.86494,31.9614787 1154.9453,31.6946388 1154.8931,31.407537 L1154.8931,31.407537 Z M1142.58756,27.4609165 C1138.7735,27.4609165 1135.67067,24.3580871 1135.67067,20.5454017 C1135.67067,16.7316861 1138.7735,13.6288567 1142.58756,13.6288567 C1146.40127,13.6288567 1149.5041,16.7316861 1149.5041,20.5454017 C1149.5041,24.3594608 1146.40127,27.4609165 1142.58756,27.4609165 L1142.58756,27.4609165 Z" id="Page-1"></path>
                </g>
            </g>
        </g>
    </g>
</svg>